<svg xmlns="http://www.w3.org/2000/svg" xmlns:xlink="http://www.w3.org/1999/xlink" width="1000" zoomAndPan="magnify" viewBox="0 0 750 374.999991" height="500" preserveAspectRatio="xMidYMid meet" version="1.0"><defs><g/><clipPath id="a44c180118"><path d="M 0 0 L 375 0 L 375 375 L 0 375 Z M 0 0 " clip-rule="nonzero"/></clipPath></defs><g clip-path="url(#a44c180118)"><path fill="#000000" d="M 145.714844 340.960938 L 145.96875 341.035156 L 145.96875 370.414062 L 145.550781 370.320312 C 141.28125 369.335938 137.050781 368.203125 132.863281 366.921875 C 128.671875 365.640625 124.535156 364.21875 120.445312 362.648438 C 116.355469 361.078125 112.324219 359.367188 108.355469 357.511719 C 104.382812 355.660156 100.484375 353.671875 96.652344 351.546875 C 92.820312 349.421875 89.070312 347.167969 85.394531 344.78125 C 81.722656 342.390625 78.136719 339.878906 74.640625 337.242188 C 71.140625 334.605469 67.738281 331.847656 64.433594 328.972656 C 61.128906 326.09375 57.929688 323.105469 54.835938 320.007812 C 51.738281 316.90625 48.753906 313.703125 45.882812 310.394531 C 43.011719 307.085938 40.257812 303.683594 37.625 300.183594 C 34.992188 296.679688 32.484375 293.09375 30.101562 289.417969 C 27.71875 285.738281 25.464844 281.984375 23.34375 278.152344 C 21.226562 274.316406 19.242188 270.414062 17.394531 266.441406 C 15.546875 262.46875 13.839844 258.4375 12.277344 254.347656 C 10.710938 250.253906 9.289062 246.113281 8.015625 241.921875 C 6.738281 237.730469 5.609375 233.5 4.632812 229.230469 L 4.539062 228.8125 L 33.925781 228.8125 L 33.992188 229.0625 C 34.898438 232.390625 35.914062 235.683594 37.035156 238.941406 C 38.160156 242.203125 39.382812 245.421875 40.714844 248.601562 C 42.046875 251.785156 43.476562 254.917969 45.011719 258.003906 C 46.542969 261.09375 48.175781 264.128906 49.90625 267.109375 C 51.632812 270.09375 53.460938 273.015625 55.378906 275.878906 C 57.296875 278.742188 59.308594 281.542969 61.40625 284.277344 C 63.507812 287.011719 65.695312 289.671875 67.96875 292.265625 C 70.242188 294.855469 72.59375 297.375 75.03125 299.8125 C 77.464844 302.253906 79.980469 304.609375 82.566406 306.886719 C 85.15625 309.164062 87.816406 311.355469 90.546875 313.460938 C 93.277344 315.566406 96.074219 317.578125 98.933594 319.503906 C 101.792969 321.425781 104.714844 323.253906 107.695312 324.988281 C 110.671875 326.722656 113.707031 328.359375 116.792969 329.898438 C 119.875 331.4375 123.007812 332.871094 126.1875 334.207031 C 129.367188 335.542969 132.585938 336.773438 135.84375 337.902344 C 139.101562 339.027344 142.390625 340.046875 145.714844 340.960938 Z M 363.414062 122.285156 C 364.71875 125.816406 365.917969 129.378906 367.007812 132.984375 C 368.097656 136.585938 369.082031 140.214844 369.953125 143.878906 C 370.828125 147.539062 371.589844 151.222656 372.238281 154.929688 C 372.890625 158.636719 373.429688 162.359375 373.859375 166.101562 C 374.285156 169.839844 374.597656 173.589844 374.800781 177.347656 C 375.003906 181.105469 375.089844 184.867188 375.066406 188.628906 C 375.042969 192.394531 374.90625 196.152344 374.652344 199.910156 C 374.402344 203.664062 374.039062 207.40625 373.5625 211.140625 C 373.085938 214.875 372.5 218.589844 371.800781 222.289062 C 371.101562 225.988281 370.292969 229.660156 369.371094 233.308594 C 368.449219 236.960938 367.421875 240.578125 366.28125 244.164062 C 365.144531 247.75 363.898438 251.300781 362.546875 254.8125 C 361.195312 258.328125 359.738281 261.792969 358.179688 265.21875 C 356.617188 268.644531 354.957031 272.019531 353.195312 275.34375 C 351.429688 278.667969 349.570312 281.9375 347.609375 285.148438 C 345.648438 288.359375 343.59375 291.511719 341.445312 294.601562 C 339.292969 297.6875 337.054688 300.710938 334.722656 303.664062 C 332.390625 306.617188 329.972656 309.5 327.46875 312.308594 C 324.964844 315.117188 322.375 317.847656 319.707031 320.5 C 317.039062 323.152344 314.292969 325.722656 311.46875 328.207031 C 308.644531 330.695312 305.75 333.09375 302.78125 335.40625 C 299.8125 337.722656 296.777344 339.941406 293.675781 342.074219 C 290.574219 344.203125 287.414062 346.238281 284.1875 348.175781 C 280.964844 350.117188 277.683594 351.957031 274.351562 353.699219 C 271.015625 355.441406 267.632812 357.082031 264.199219 358.621094 C 260.765625 360.160156 257.289062 361.59375 253.765625 362.921875 C 250.246094 364.253906 246.691406 365.476562 243.097656 366.589844 C 239.503906 367.703125 235.878906 368.710938 232.226562 369.609375 C 228.574219 370.503906 224.894531 371.292969 221.195312 371.96875 C 217.492188 372.640625 213.773438 373.207031 210.039062 373.65625 C 206.304688 374.109375 202.558594 374.449219 198.800781 374.675781 C 195.046875 374.902344 191.289062 375.015625 187.523438 375.015625 L 173.265625 375.015625 L 173.265625 304.917969 C 170.015625 304.519531 166.785156 303.988281 163.574219 303.320312 C 160.367188 302.652344 157.191406 301.855469 154.050781 300.921875 C 150.90625 299.992188 147.808594 298.933594 144.753906 297.746094 C 141.699219 296.558594 138.699219 295.246094 135.753906 293.8125 C 132.808594 292.375 129.929688 290.820312 127.113281 289.144531 C 124.296875 287.46875 121.554688 285.679688 118.886719 283.777344 C 116.21875 281.875 113.632812 279.863281 111.132812 277.746094 C 108.628906 275.628906 106.222656 273.410156 103.902344 271.09375 C 101.585938 268.777344 99.367188 266.367188 97.25 263.867188 C 95.132812 261.367188 93.125 258.78125 91.21875 256.113281 C 89.316406 253.445312 87.527344 250.707031 85.851562 247.890625 C 84.175781 245.074219 82.621094 242.191406 81.183594 239.246094 C 79.746094 236.300781 78.433594 233.300781 77.246094 230.246094 C 76.058594 227.195312 75 224.09375 74.070312 220.953125 C 73.136719 217.8125 72.339844 214.636719 71.671875 211.429688 C 71.003906 208.21875 70.46875 204.988281 70.070312 201.738281 L 0.00390625 201.738281 L 0.00390625 187.5 C 0.00390625 183.339844 0.144531 179.179688 0.425781 175.027344 C 0.703125 170.875 1.121094 166.734375 1.675781 162.609375 C 2.230469 158.484375 2.917969 154.382812 3.746094 150.304688 C 4.574219 146.226562 5.535156 142.179688 6.632812 138.164062 C 7.730469 134.148438 8.957031 130.175781 10.320312 126.242188 C 11.679688 122.308594 13.171875 118.425781 14.792969 114.589844 C 16.410156 110.757812 18.15625 106.980469 20.027344 103.261719 C 21.898438 99.546875 23.890625 95.894531 26.003906 92.308594 C 28.117188 88.722656 30.351562 85.210938 32.699219 81.777344 C 35.046875 78.339844 37.503906 74.984375 40.074219 71.710938 C 42.648438 68.4375 45.324219 65.253906 48.105469 62.160156 C 50.890625 59.066406 53.773438 56.066406 56.753906 53.164062 C 59.738281 50.257812 62.8125 47.460938 65.980469 44.761719 C 69.152344 42.0625 72.40625 39.472656 75.746094 36.992188 C 79.089844 34.507812 82.507812 32.140625 86.007812 29.886719 C 89.507812 27.632812 93.078125 25.5 96.71875 23.484375 C 100.359375 21.464844 104.0625 19.574219 107.832031 17.804688 C 111.597656 16.035156 115.417969 14.390625 119.296875 12.875 C 123.171875 11.359375 127.09375 9.976562 131.0625 8.722656 C 135.03125 7.46875 139.039062 6.347656 143.082031 5.359375 C 147.125 4.371094 151.195312 3.519531 155.296875 2.800781 C 159.394531 2.085938 163.515625 1.503906 167.652344 1.0625 C 171.792969 0.621094 175.941406 0.316406 180.097656 0.148438 C 184.257812 -0.015625 188.417969 -0.0429688 192.578125 0.0664062 C 196.738281 0.175781 200.890625 0.425781 205.035156 0.8125 C 209.179688 1.199219 213.304688 1.722656 217.414062 2.386719 C 221.523438 3.046875 225.605469 3.84375 229.664062 4.777344 C 233.71875 5.710938 237.738281 6.777344 241.726562 7.976562 C 245.710938 9.179688 249.652344 10.511719 253.546875 11.976562 C 257.445312 13.4375 261.285156 15.027344 265.078125 16.746094 C 268.867188 18.46875 272.597656 20.308594 276.265625 22.277344 C 279.933594 24.246094 283.53125 26.332031 287.058594 28.539062 L 287.433594 28.777344 L 266.214844 49.25 L 265.988281 49.117188 C 260.03125 45.742188 253.878906 42.765625 247.535156 40.183594 C 241.195312 37.605469 234.710938 35.441406 228.085938 33.703125 C 221.464844 31.960938 214.757812 30.652344 207.964844 29.777344 C 201.171875 28.90625 194.351562 28.472656 187.503906 28.480469 C 105.851562 28.480469 36.355469 92.039062 29.113281 173.257812 L 70.070312 173.257812 C 70.285156 171.480469 70.539062 169.714844 70.832031 167.953125 C 71.128906 166.1875 71.460938 164.433594 71.835938 162.6875 C 72.210938 160.9375 72.625 159.203125 73.078125 157.472656 C 73.53125 155.746094 74.023438 154.027344 74.554688 152.320312 C 75.085938 150.613281 75.65625 148.921875 76.261719 147.242188 C 76.871094 145.558594 77.515625 143.894531 78.199219 142.242188 C 78.882812 140.59375 79.601562 138.957031 80.359375 137.339844 C 81.117188 135.71875 81.910156 134.121094 82.742188 132.535156 C 83.570312 130.953125 84.4375 129.390625 85.335938 127.847656 C 86.238281 126.304688 87.175781 124.78125 88.144531 123.28125 C 89.113281 121.78125 90.117188 120.300781 91.15625 118.847656 C 92.191406 117.390625 93.261719 115.960938 94.363281 114.554688 C 95.464844 113.144531 96.597656 111.765625 97.761719 110.410156 C 98.925781 109.054688 100.121094 107.726562 101.347656 106.425781 C 102.570312 105.121094 103.824219 103.847656 105.109375 102.605469 C 106.390625 101.359375 107.699219 100.144531 109.039062 98.960938 C 110.375 97.773438 111.738281 96.621094 113.128906 95.496094 C 114.519531 94.371094 115.933594 93.28125 117.375 92.222656 C 118.8125 91.164062 120.277344 90.136719 121.761719 89.144531 C 123.25 88.152344 124.757812 87.191406 126.285156 86.265625 C 127.816406 85.34375 129.367188 84.453125 130.9375 83.597656 C 132.507812 82.742188 134.09375 81.925781 135.703125 81.140625 C 137.308594 80.359375 138.933594 79.613281 140.574219 78.90625 C 142.214844 78.195312 143.871094 77.523438 145.542969 76.890625 C 147.214844 76.257812 148.898438 75.660156 150.597656 75.105469 C 152.296875 74.546875 154.003906 74.027344 155.726562 73.546875 C 157.449219 73.066406 159.179688 72.625 160.921875 72.226562 C 162.664062 71.824219 164.414062 71.460938 166.171875 71.140625 C 167.929688 70.816406 169.695312 70.535156 171.46875 70.292969 C 173.238281 70.050781 175.015625 69.847656 176.792969 69.6875 C 178.574219 69.523438 180.359375 69.402344 182.144531 69.324219 C 183.929688 69.242188 185.714844 69.203125 187.503906 69.203125 C 194.035156 69.171875 200.527344 69.6875 206.972656 70.75 C 213.417969 71.808594 219.730469 73.398438 225.910156 75.515625 C 232.089844 77.632812 238.050781 80.253906 243.792969 83.371094 C 249.53125 86.488281 254.972656 90.0625 260.113281 94.09375 L 309.746094 45.304688 C 313.398438 48.449219 316.953125 51.792969 320.328125 55.144531 L 330.109375 65.742188 C 337.289062 74.101562 343.671875 83.03125 349.261719 92.527344 C 354.851562 102.023438 359.558594 111.9375 363.382812 122.269531 Z M 346.542969 187.515625 C 346.546875 182.90625 346.347656 178.304688 345.949219 173.714844 C 345.550781 169.125 344.957031 164.558594 344.160156 160.019531 C 343.363281 155.480469 342.375 150.984375 341.1875 146.53125 C 340 142.078125 338.621094 137.683594 337.054688 133.351562 C 335.484375 129.015625 333.730469 124.757812 331.789062 120.578125 C 329.851562 116.398438 327.734375 112.308594 325.4375 108.3125 C 323.144531 104.316406 320.679688 100.429688 318.046875 96.648438 C 315.410156 92.863281 312.617188 89.203125 309.664062 85.664062 L 280.355469 114.191406 L 280.492188 114.390625 L 259.882812 134.28125 L 259.644531 133.960938 C 256.90625 130.289062 253.90625 126.84375 250.644531 123.625 C 249.359375 122.363281 248.039062 121.140625 246.679688 119.957031 C 245.324219 118.777344 243.929688 117.636719 242.503906 116.539062 C 241.078125 115.441406 239.617188 114.386719 238.128906 113.375 C 236.636719 112.367188 235.117188 111.402344 233.570312 110.484375 C 232.019531 109.566406 230.445312 108.695312 228.84375 107.875 C 227.242188 107.050781 225.617188 106.277344 223.96875 105.550781 C 222.320312 104.828125 220.652344 104.152344 218.964844 103.53125 C 217.273438 102.90625 215.566406 102.335938 213.84375 101.816406 C 212.121094 101.292969 210.382812 100.828125 208.632812 100.410156 C 206.878906 99.996094 205.117188 99.632812 203.34375 99.324219 C 201.570312 99.015625 199.789062 98.761719 198 98.5625 C 196.210938 98.359375 194.417969 98.214844 192.617188 98.121094 C 190.820312 98.03125 189.019531 97.992188 187.222656 98.007812 C 185.421875 98.023438 183.621094 98.09375 181.828125 98.222656 C 180.03125 98.347656 178.238281 98.527344 176.453125 98.757812 C 174.667969 98.992188 172.894531 99.28125 171.125 99.621094 C 169.355469 99.960938 167.601562 100.355469 165.855469 100.804688 C 164.113281 101.25 162.382812 101.75 160.671875 102.300781 C 158.957031 102.851562 157.261719 103.457031 155.585938 104.109375 C 153.90625 104.765625 152.25 105.46875 150.617188 106.222656 C 148.980469 106.976562 147.371094 107.78125 145.785156 108.632812 C 144.199219 109.484375 142.640625 110.382812 141.109375 111.332031 C 139.578125 112.277344 138.074219 113.269531 136.601562 114.304688 C 135.132812 115.34375 133.691406 116.421875 132.285156 117.546875 C 130.878906 118.671875 129.507812 119.835938 128.171875 121.042969 C 126.835938 122.25 125.539062 123.496094 124.277344 124.78125 C 123.015625 126.066406 121.796875 127.390625 120.617188 128.75 C 119.4375 130.109375 118.296875 131.5 117.203125 132.929688 C 116.105469 134.359375 115.054688 135.816406 114.042969 137.308594 C 113.035156 138.800781 112.074219 140.324219 111.160156 141.871094 C 110.242188 143.421875 109.375 145 108.554688 146.601562 C 107.734375 148.203125 106.960938 149.828125 106.238281 151.480469 C 105.519531 153.128906 104.847656 154.796875 104.222656 156.488281 C 103.601562 158.175781 103.035156 159.882812 102.515625 161.609375 C 101.996094 163.332031 101.53125 165.070312 101.117188 166.824219 C 100.707031 168.574219 100.347656 170.339844 100.039062 172.113281 C 99.734375 173.886719 99.480469 175.667969 99.28125 177.457031 C 99.085938 179.246094 98.941406 181.042969 98.851562 182.839844 C 98.761719 184.636719 98.726562 186.4375 98.742188 188.238281 C 98.761719 190.039062 98.835938 191.835938 98.964844 193.632812 C 99.089844 195.425781 99.273438 197.21875 99.507812 199.003906 C 99.746094 200.789062 100.035156 202.5625 100.378906 204.332031 C 100.71875 206.097656 101.117188 207.851562 101.566406 209.597656 C 102.015625 211.339844 102.515625 213.066406 103.070312 214.78125 C 103.625 216.496094 104.230469 218.1875 104.886719 219.867188 C 105.542969 221.542969 106.25 223.195312 107.007812 224.832031 C 107.761719 226.464844 108.570312 228.074219 109.421875 229.660156 C 110.277344 231.242188 111.175781 232.800781 112.125 234.332031 C 113.074219 235.863281 114.066406 237.363281 115.105469 238.832031 C 116.144531 240.304688 117.226562 241.742188 118.355469 243.144531 C 119.480469 244.550781 120.648438 245.921875 121.855469 247.253906 C 123.0625 248.589844 124.3125 249.886719 125.597656 251.144531 C 126.886719 252.402344 128.210938 253.621094 129.570312 254.800781 C 130.933594 255.980469 132.328125 257.117188 133.757812 258.210938 C 135.1875 259.304688 136.648438 260.355469 138.140625 261.359375 C 139.632812 262.367188 141.15625 263.328125 142.707031 264.242188 C 144.257812 265.15625 145.835938 266.019531 147.4375 266.839844 C 149.042969 267.660156 150.667969 268.425781 152.320312 269.148438 C 153.96875 269.867188 155.640625 270.539062 157.332031 271.15625 C 159.019531 271.777344 160.730469 272.34375 162.453125 272.859375 C 164.179688 273.375 165.917969 273.839844 167.671875 274.25 C 169.421875 274.660156 171.1875 275.015625 172.960938 275.320312 C 174.738281 275.625 176.519531 275.875 178.308594 276.070312 C 180.097656 276.265625 181.890625 276.410156 183.691406 276.496094 C 185.488281 276.582031 187.289062 276.617188 189.089844 276.597656 C 190.886719 276.574219 192.6875 276.5 194.480469 276.371094 C 196.277344 276.238281 198.066406 276.054688 199.851562 275.816406 C 201.636719 275.578125 203.414062 275.285156 205.179688 274.941406 C 206.945312 274.597656 208.703125 274.195312 210.445312 273.746094 C 212.1875 273.292969 213.914062 272.789062 215.625 272.234375 C 217.339844 271.675781 219.03125 271.070312 220.707031 270.410156 C 222.382812 269.753906 224.039062 269.042969 225.671875 268.285156 C 227.304688 267.527344 228.910156 266.71875 230.496094 265.863281 C 232.078125 265.007812 233.636719 264.105469 235.164062 263.152344 C 236.695312 262.203125 238.195312 261.207031 239.664062 260.167969 C 241.132812 259.125 242.566406 258.042969 243.972656 256.914062 C 245.375 255.785156 246.742188 254.617188 248.074219 253.40625 C 249.410156 252.195312 250.703125 250.945312 251.960938 249.65625 C 253.21875 248.371094 254.433594 247.042969 255.613281 245.679688 C 256.789062 244.320312 257.921875 242.921875 259.015625 241.492188 C 260.109375 240.058594 261.15625 238.597656 262.160156 237.101562 C 263.164062 235.609375 264.121094 234.085938 265.035156 232.53125 C 265.945312 230.980469 266.8125 229.402344 267.628906 227.796875 C 268.445312 226.191406 269.210938 224.566406 269.929688 222.914062 C 270.648438 221.261719 271.3125 219.589844 271.929688 217.898438 C 272.546875 216.207031 273.113281 214.5 273.625 212.773438 C 274.140625 211.050781 274.601562 209.308594 275.007812 207.554688 C 275.417969 205.804688 275.773438 204.039062 276.074219 202.261719 C 276.375 200.488281 276.625 198.707031 276.816406 196.917969 C 277.011719 195.125 277.152344 193.332031 277.234375 191.535156 C 277.320312 189.734375 277.351562 187.9375 277.328125 186.136719 C 277.304688 184.335938 277.226562 182.539062 277.09375 180.742188 C 276.960938 178.945312 276.777344 177.15625 276.535156 175.371094 C 276.296875 173.589844 276 171.8125 275.652344 170.046875 C 275.304688 168.28125 274.902344 166.527344 274.449219 164.785156 C 273.996094 163.042969 273.488281 161.316406 272.929688 159.601562 L 272.867188 159.394531 L 295.03125 138.007812 L 295.234375 138.453125 C 296.191406 140.5625 297.082031 142.695312 297.914062 144.851562 C 298.742188 147.011719 299.507812 149.195312 300.210938 151.398438 C 300.914062 153.605469 301.550781 155.828125 302.121094 158.070312 C 302.695312 160.308594 303.199219 162.566406 303.640625 164.839844 C 304.078125 167.109375 304.453125 169.390625 304.757812 171.683594 C 305.066406 173.976562 305.304688 176.277344 305.476562 178.585938 C 305.644531 180.894531 305.75 183.203125 305.785156 185.515625 C 305.820312 187.828125 305.789062 190.140625 305.691406 192.453125 C 305.589844 194.765625 305.421875 197.070312 305.1875 199.371094 C 304.953125 201.675781 304.652344 203.96875 304.28125 206.25 C 303.914062 208.535156 303.476562 210.804688 302.976562 213.066406 C 302.472656 215.324219 301.90625 217.566406 301.273438 219.789062 C 300.636719 222.015625 299.941406 224.21875 299.175781 226.402344 C 298.414062 228.589844 297.589844 230.75 296.699219 232.882812 C 295.808594 235.019531 294.859375 237.128906 293.84375 239.207031 C 292.832031 241.289062 291.757812 243.335938 290.625 245.351562 C 289.492188 247.371094 288.304688 249.351562 287.054688 251.300781 C 285.804688 253.246094 284.5 255.15625 283.136719 257.027344 C 281.777344 258.898438 280.363281 260.726562 278.894531 262.515625 C 277.425781 264.304688 275.90625 266.046875 274.335938 267.746094 C 272.765625 269.445312 271.148438 271.097656 269.480469 272.703125 C 267.8125 274.304688 266.101562 275.859375 264.34375 277.363281 C 262.585938 278.867188 260.785156 280.316406 258.941406 281.714844 C 257.097656 283.113281 255.214844 284.457031 253.292969 285.746094 C 251.371094 287.035156 249.414062 288.265625 247.417969 289.4375 C 245.425781 290.609375 243.398438 291.722656 241.339844 292.777344 C 239.28125 293.832031 237.191406 294.828125 235.074219 295.757812 C 232.957031 296.691406 230.8125 297.558594 228.644531 298.367188 C 226.476562 299.171875 224.285156 299.914062 222.074219 300.59375 C 219.863281 301.269531 217.632812 301.882812 215.386719 302.433594 C 213.136719 302.980469 210.875 303.460938 208.597656 303.875 C 206.324219 304.289062 204.035156 304.636719 201.742188 304.917969 L 201.742188 345.878906 C 282.957031 338.640625 346.515625 269.144531 346.515625 187.5 Z M 346.542969 187.515625 " fill-opacity="1" fill-rule="nonzero"/></g><g fill="#000000" fill-opacity="1"><g transform="translate(385.243988, 288.547931)"><g><path d="M 132.9375 -177.875 C 153.257812 -177.875 169.390625 -171.113281 181.328125 -157.59375 C 193.273438 -144.082031 199.25 -125.804688 199.25 -102.765625 L 199.25 0 L 137.640625 0 L 137.640625 -94.59375 C 137.640625 -104.644531 135.019531 -112.550781 129.78125 -118.3125 C 124.550781 -124.082031 117.535156 -126.96875 108.734375 -126.96875 C 99.515625 -126.96875 92.285156 -124.082031 87.046875 -118.3125 C 81.804688 -112.550781 79.1875 -104.644531 79.1875 -94.59375 L 79.1875 0 L 17.59375 0 L 17.59375 -176.296875 L 79.1875 -176.296875 L 79.1875 -151.15625 C 84.632812 -159.125 91.96875 -165.566406 101.1875 -170.484375 C 110.40625 -175.410156 120.988281 -177.875 132.9375 -177.875 Z M 132.9375 -177.875 "/></g></g></g><g fill="#000000" fill-opacity="1"><g transform="translate(600.782382, 288.547931)"><g><path d="M 48.71875 -192.640625 C 37.820312 -192.640625 29.070312 -195.625 22.46875 -201.59375 C 15.875 -207.570312 12.578125 -215.066406 12.578125 -224.078125 C 12.578125 -233.296875 15.875 -240.941406 22.46875 -247.015625 C 29.070312 -253.085938 37.820312 -256.125 48.71875 -256.125 C 59.394531 -256.125 68.03125 -253.085938 74.625 -247.015625 C 81.226562 -240.941406 84.53125 -233.296875 84.53125 -224.078125 C 84.53125 -215.066406 81.226562 -207.570312 74.625 -201.59375 C 68.03125 -195.625 59.394531 -192.640625 48.71875 -192.640625 Z M 79.1875 -176.296875 L 79.1875 0 L 17.59375 0 L 17.59375 -176.296875 Z M 79.1875 -176.296875 "/></g></g></g></svg>